<svg width="18" height="16" viewBox="0 0 18 16" fill="none" xmlns="http://www.w3.org/2000/svg">
<g clip-path="url(#clip0_41_536)">
<path d="M17.5588 8.18373C17.5588 7.63991 17.5099 7.09315 17.4054 6.55815H9.02756V9.63881H13.8252C13.6261 10.6324 12.9864 11.5113 12.0497 12.0698V14.0687H14.912C16.5928 12.6754 17.5588 10.6177 17.5588 8.18373Z" fill="#4285F4"/>
<path d="M9.02756 16C11.4231 16 13.4433 15.2916 14.9152 14.0687L12.053 12.0698C11.2567 12.5578 10.2286 12.8341 9.03082 12.8341C6.7136 12.8341 4.74886 11.4261 4.04391 9.53298H1.09027V11.5936C2.59809 14.2951 5.66922 16 9.02756 16Z" fill="#34A853"/>
<path d="M4.04066 9.53298C3.6686 8.53941 3.6686 7.46353 4.04066 6.46996V4.40933H1.09028C-0.169499 6.66985 -0.169499 9.33309 1.09028 11.5936L4.04066 9.53298Z" fill="#FBBC04"/>
<path d="M9.02756 3.1659C10.2939 3.14826 11.5177 3.57744 12.4348 4.36524L14.9707 2.0812C13.365 0.723128 11.2338 -0.023519 9.02756 -2.57633e-06C5.66922 -2.57633e-06 2.59809 1.70494 1.09027 4.40933L4.04064 6.46996C4.74234 4.57395 6.71034 3.1659 9.02756 3.1659Z" fill="#EA4335"/>
</g>
<defs>
<clipPath id="clip0_41_536">
<rect width="17.4118" height="16" fill="white" transform="translate(0.147064)"/>
</clipPath>
</defs>
</svg>
